<svg viewBox="48 48 648 144" fill="none" xmlns="http://www.w3.org/2000/svg">
    <path d="M511.402 103.5C502.202 103.5 494.802 110.9 494.802 120.1C494.802 129.3 502.202 136.7 511.402 136.7C520.602 136.7 528.002 129.3 528.002 120.1C528.002 111 520.602 103.5 511.402 103.5ZM511.402 145.5C497.502 145.5 486.102 134.2 486.102 120.2C486.102 106.3 497.402 94.9004 511.402 94.9004C525.402 94.9004 536.702 106.1 536.702 120.1C536.702 134.1 525.402 145.5 511.402 145.5Z" fill="black"/>
    <path d="M695.998 96H687.398V144.2H695.998V96Z" fill="black"/>
    <path d="M664.299 96H655.699V144.2H664.299V96Z" fill="black"/>
    <path d="M691.302 115.2H659.602V123.8H691.302V115.2Z" fill="black"/>
    <path d="M580.4 123.601H554.5V132.201H580.4V123.601Z" fill="black"/>
    <path d="M456.999 145.5C450.299 145.5 443.899 142.9 439.099 138.1C434.299 133.3 431.699 126.9 431.699 120.2C431.699 113.5 434.299 107.1 439.099 102.3C443.899 97.5004 450.299 94.9004 456.999 94.9004C463.699 94.9004 470.099 97.5004 474.899 102.3L468.799 108.4C465.599 105.2 461.399 103.5 456.999 103.5C452.599 103.5 448.399 105.2 445.199 108.3C442.099 111.4 440.399 115.7 440.399 120.1C440.399 124.5 442.099 128.7 445.199 131.9C448.299 135 452.599 136.7 456.999 136.7C461.399 136.7 465.599 135 468.799 131.9L474.899 138C470.099 142.8 463.799 145.5 456.999 145.5Z" fill="black"/>
    <path d="M553.702 144.1L567.802 104.9L581.702 144.1H590.802L573.702 96H561.702L544.602 144.1H553.702Z" fill="black"/>
    <path d="M623.999 145.5C617.299 145.5 610.899 142.9 606.099 138.1C601.299 133.3 598.699 126.9 598.699 120.2C598.699 113.5 601.299 107.1 606.099 102.3C610.899 97.5004 617.299 94.9004 623.999 94.9004C630.699 94.9004 637.099 97.5004 641.899 102.3L635.799 108.4C632.699 105.3 628.399 103.6 623.999 103.6C619.599 103.6 615.399 105.3 612.199 108.4C609.099 111.5 607.399 115.8 607.399 120.2C607.399 124.6 609.099 128.8 612.199 132C615.299 135.2 619.599 136.8 623.999 136.8C628.399 136.8 632.599 135.1 635.799 132L641.899 138.1C637.099 142.8 630.699 145.5 623.999 145.5Z" fill="black"/>
    <path d="M237.899 124H232.699V144H237.899V124Z" fill="black"/>
    <path d="M249.4 96L235.3 120.1L222 96H216L235.1 130.7L255.4 96H249.4Z" fill="black"/>
    <path d="M346.798 145C336.098 145 327.398 136.3 327.398 125.6V96H332.598V125.6C332.598 133.5 338.998 139.8 346.798 139.8C354.698 139.8 360.998 133.4 360.998 125.6V96H366.198V125.6C366.098 136.3 357.398 145 346.798 145Z" fill="black"/>
    <path d="M388.001 119.4H402.801C407.801 119.4 412.001 115.2 412.001 110.2C412.001 105.2 407.801 101 402.801 101H388.001V119.4ZM388.001 144H382.801V96H402.801C410.701 96 417.201 102.4 417.201 110.4C417.201 118.3 410.801 124.8 402.801 124.8H388.001V144Z" fill="black"/>
    <path d="M418.801 144.1L405.801 120.7L401.301 123.2L412.901 144.1H418.801Z" fill="black"/>
    <path d="M288.699 100.3C283.899 100.3 279.199 102 275.499 105.3C271.399 108.8 269.099 113.8 268.799 119.1C268.499 124.5 270.299 129.7 273.799 133.6C277.299 137.6 282.299 140 287.599 140.3C292.999 140.6 298.199 138.8 302.099 135.3C306.199 131.8 308.499 126.8 308.799 121.5C309.099 116.1 307.299 110.9 303.799 107C300.299 102.9 295.299 100.6 289.999 100.3C289.599 100.3 289.099 100.3 288.699 100.3ZM288.699 145.6C288.199 145.6 287.599 145.6 287.099 145.5C280.399 145.1 274.199 142 269.699 137C265.199 131.9 262.999 125.4 263.499 118.7C263.899 112 266.999 105.8 271.999 101.3C277.099 96.8 283.599 94.6 290.299 95.1C296.999 95.6 303.199 98.6 307.699 103.6C312.199 108.7 314.399 115.2 313.899 121.9C313.499 128.6 310.399 134.8 305.399 139.3C300.699 143.5 294.799 145.6 288.699 145.6Z" fill="black"/>
    <path opacity="0.5" d="M97.9983 96.4751C97.3104 99.1531 96.4996 101.807 95.6151 104.411C93.0107 111.905 89.5219 119.202 85.2223 126.106C80.9227 133.009 75.8123 139.496 69.9157 145.613C64.1174 151.608 57.3117 156.203 50.5061 161.117C48.9091 162.222 48 164.114 48 166.006C48 168.709 50.2112 171.903 53.8966 171.903C55.3953 172.001 56.1078 171.706 56.7958 171.313C65.395 167.505 72.5938 162.419 80.0874 156.719C87.581 151.019 94.5832 144.532 100.775 137.309C102.961 134.778 105.05 132.174 107.04 129.496C106.745 128.759 106.45 128.022 106.155 127.285C102.273 117.334 99.5216 106.991 97.9983 96.4751Z" fill="black"/>
    <path d="M182.294 154.606C163.401 144.311 146.301 134.705 134.999 116.302C123.5 98.2931 116.105 77.4093 116.105 56.0096C116.105 51.5134 112.493 48 108.095 48C103.403 48.0246 100.086 51.6117 100.086 56.0341C100.086 62.7415 100.184 69.3261 100.184 76.0334C100.184 78.7852 100.258 81.5124 100.43 84.2641C100.749 89.6202 101.388 94.9517 102.322 100.234C102.789 102.863 103.354 105.492 103.968 108.096C104.386 109.841 104.828 111.56 105.319 113.28C106.056 115.86 106.842 118.415 107.727 120.946C108.317 122.641 108.931 124.312 109.594 125.983C119.618 151.461 137.357 173.991 161.583 189.101C165.071 191.312 168.683 192 172.074 192C183.769 192 192.073 182.295 192.073 171.902C192.073 166.62 189.493 158.61 182.294 154.606Z" fill="black"/>
</svg>
