<svg xmlns="http://www.w3.org/2000/svg" viewBox="0 0 529 59" fill="#000"><path d="M25.3 33.7h-6v23.1h6zM528.301 1.3h-10V57h10zm-36.102 0h-10V57h10z"/><path d="M523.399 23.5h-36.7v10h36.7zM402 33.2h-29.9v10H402zM268.999 58.5c-7.8 0-15.1-3-20.7-8.6-5.5-5.5-8.6-12.9-8.6-20.7s3-15.1 8.6-20.7c5.5-5.5 12.9-8.5 20.7-8.5s15.1 3 20.7 8.6l-7.1 7.1c-3.7-3.7-8.5-5.7-13.6-5.7s-10 2-13.6 5.6-5.6 8.5-5.6 13.6 2 10 5.6 13.6 8.5 5.6 13.6 5.6 10-2 13.6-5.6l7.1 7.1c-5.6 5.5-12.9 8.6-20.7 8.6M144.3 57.9c-12.4 0-22.4-10.1-22.4-22.4V1.3h6v34.2c0 9.1 7.4 16.4 16.4 16.4 9.1 0 16.4-7.4 16.4-16.4V1.3h6v34.2c0 12.4-10.1 22.4-22.4 22.4m47.7-1.1h-6V1.3h23.1c9.1 0 16.6 7.4 16.6 16.6 0 9.1-7.4 16.6-16.6 16.6H192zm0-28.4h17.1c5.8 0 10.6-4.8 10.6-10.6s-4.8-10.6-10.6-10.6H192z"/><path d="m371.2 56.9 16.2-45.2 16.1 45.2h10.6L394.3 1.5h-13.9l-19.8 55.4zm-143.599 0-15.1-27-5.2 2.9 13.5 24.1zM38.6 1.3 22.3 29.2 6.9 1.3H0l22.1 40.1L45.5 1.3zm409.7 57.2c-7.8 0-15.1-3-20.7-8.6-5.5-5.5-8.6-12.9-8.6-20.7s3-15.1 8.6-20.7C433.1 3 440.5 0 448.3 0s15.1 3 20.7 8.6l-7.1 7.1c-3.6-3.6-8.5-5.6-13.6-5.6s-10 2-13.6 5.6-5.6 8.5-5.6 13.6 2 10 5.6 13.6 8.5 5.6 13.6 5.6 10-2 13.6-5.6L469 50c-5.6 5.4-12.9 8.5-20.7 8.5m-368.4.201c-.6 0-1.3 0-1.9-.1-7.8-.5-14.9-4-20.1-9.8-5.2-5.9-7.7-13.4-7.2-21.2s4-14.9 9.8-20.1c5.9-5.2 13.4-7.7 21.2-7.2s14.9 4 20.099 9.8c5.2 5.9 7.7 13.4 7.2 21.2s-4 14.9-9.8 20.1c-5.4 4.8-12.2 7.3-19.3 7.3m0-52.4c-5.6 0-11 2-15.3 5.8-4.7 4.1-7.4 9.8-7.8 16s1.7 12.2 5.8 16.8 9.8 7.4 16 7.8 12.2-1.7 16.8-5.8c4.699-4.1 7.399-9.8 7.799-16s-1.7-12.2-5.8-16.8c-4.1-4.7-9.8-7.4-16-7.8zM327.8 58.5c-16.1 0-29.2-13.1-29.2-29.2S311.7.1 327.8.1s29.2 13 29.2 29.1-13.1 29.3-29.2 29.3m0-48.5c-10.6 0-19.2 8.6-19.2 19.2s8.6 19.2 19.2 19.2S347 39.8 347 29.2 338.4 10 327.8 10"/></svg>
